<svg xmlns="http://www.w3.org/2000/svg" viewBox="0 0 7585 1579" preserveAspectRatio="xMinYMid meet">
  <path class="teti-brand-wordmark-body" fill="var(--teti-brand-foreground)" d="M0 353.5V66.9H1241.4V353.5H793.6V1556.9H448.4V353.5ZM1731.9 1579Q1562 1579 1437.3 1509.2Q1312.5 1439.3 1245 1311.7Q1177.5 1184 1177.5 1011.6Q1177.5 842.5 1245.1 714.4Q1312.8 586.2 1434.8 514.2Q1556.9 442.3 1720.2 442.3Q1837.2 442.3 1934.9 479.9Q2032.7 517.6 2104.6 589.8Q2176.4 662.1 2215.8 766.2Q2255.2 870.3 2255.2 1003.7V1091.8H1296.5V890.7H2094.6L1938.2 937.4Q1938.2 860.5 1913.4 805.2Q1888.7 749.8 1841.3 719.8Q1793.9 689.8 1724.7 689.8Q1655.9 689.8 1607.6 720Q1559.3 750.2 1533.9 804.4Q1508.6 858.6 1508.6 931.9V1076.4Q1508.6 1159.4 1536.8 1216.9Q1565.1 1274.4 1617.3 1303.8Q1669.4 1333.2 1739.8 1333.2Q1789.2 1333.2 1829 1319.3Q1868.9 1305.3 1897 1278.9Q1925.1 1252.5 1939 1215L2241.5 1248.9Q2216.8 1347.9 2147 1422.1Q2077.3 1496.4 1971.7 1537.7Q1866 1579 1731.9 1579ZM3042.8 459.6V714.5H2338V459.6ZM2497.8 186.3H2835.4V1214.3Q2835.4 1262.2 2856.6 1283.6Q2877.8 1305 2929.6 1305Q2950 1305 2983.9 1302.1Q3017.8 1299.2 3033.1 1296.5L3063 1548.6Q3015.9 1559.6 2962.2 1563.7Q2908.5 1567.7 2857.4 1567.7Q2677.7 1567.7 2587.8 1488.5Q2497.8 1409.3 2497.8 1253ZM3211.5 1556.9V459.6H3549V1556.9ZM3984.8 1577Q3906.8 1577 3853.1 1523.8Q3799.5 1470.6 3799.5 1393.1Q3799.5 1315.4 3853.1 1262.3Q3906.8 1209.1 3984.8 1209.1Q4063 1209.1 4116.6 1262.3Q4170.2 1315.4 4170.2 1393.1Q4170.2 1470.6 4116.6 1523.8Q4063 1577 3984.8 1577ZM5074.2 1575.8Q4993.7 1575.8 4932.3 1549.6Q4871 1523.4 4828.7 1479.6Q4786.5 1435.7 4762.6 1382.1H4753.6V1556.9H4420.5V66.9H4758V634.8H4764Q4789.4 582.9 4830.7 539.2Q4872.1 495.5 4933 469.1Q4993.9 442.6 5076.8 442.6Q5201.1 442.6 5302.8 507.3Q5404.4 572 5465.2 698.1Q5525.9 824.3 5525.9 1008.8Q5525.9 1190.1 5467.1 1316.7Q5408.2 1443.4 5306.2 1509.6Q5204.2 1575.8 5074.2 1575.8ZM4967.5 1308.9Q5036 1308.9 5083.4 1271.8Q5130.8 1234.8 5155.9 1167.1Q5181 1099.4 5181 1008.5Q5181 917.1 5156 850.1Q5131 783 5083.6 746Q5036.2 709 4967.5 709Q4899.6 709 4850.3 745.8Q4801 782.6 4774.6 849.6Q4748.2 916.6 4748.2 1008.5Q4748.2 1099.3 4774.7 1166.8Q4801.2 1234.2 4850.6 1271.5Q4900 1308.9 4967.5 1308.9ZM6217.1 1579Q6046.8 1579 5921.6 1508Q5796.4 1437 5728.5 1309.2Q5660.5 1181.5 5660.5 1011.2Q5660.5 840.3 5728.5 712.5Q5796.4 584.6 5921.6 513.5Q6046.8 442.3 6217.1 442.3Q6387.9 442.3 6512.6 513.5Q6637.3 584.6 6705.2 712.5Q6773.2 840.3 6773.2 1011.2Q6773.2 1181.5 6705.2 1309.2Q6637.3 1437 6512.6 1508Q6387.9 1579 6217.1 1579ZM6217.1 1316.3Q6284.3 1316.3 6332 1278.5Q6379.8 1240.7 6405 1171.7Q6430.3 1102.7 6430.3 1010.3Q6430.3 916.7 6405 848.4Q6379.8 780.1 6332 742.5Q6284.3 705 6217.1 705Q6150 705 6102.1 742.5Q6054.1 780 6028.8 848.2Q6003.6 916.5 6003.6 1010.3Q6003.6 1102.8 6028.8 1171.8Q6054.1 1240.7 6102 1278.5Q6149.9 1316.3 6217.1 1316.3ZM7564.8 459.6V714.5H6860V459.6ZM7019.8 186.3H7357.4V1214.3Q7357.4 1262.2 7378.6 1283.6Q7399.8 1305 7451.6 1305Q7472 1305 7505.9 1302.1Q7539.8 1299.2 7555.1 1296.5L7585 1548.6Q7537.9 1559.6 7484.2 1563.7Q7430.5 1567.7 7379.4 1567.7Q7199.7 1567.7 7109.8 1488.5Q7019.8 1409.3 7019.8 1253Z"/>
  <path class="teti-brand-wordmark-accent" fill="var(--teti-brand-accent)" d="M3379.7 334.3Q3304 334.3 3251.8 285.7Q3199.7 237.2 3199.7 167.1Q3199.7 96.1 3251.8 48.1Q3304 0 3379.6 0Q3455.5 0 3507.7 48Q3559.9 96 3559.9 167.2Q3559.9 237.3 3507.7 285.8Q3455.4 334.3 3379.7 334.3Z"/>
</svg>
